# xmcd CD database file
#
# Track frame offsets:
#	150
#	12632
#	31744
#	51102
#	73796
#	88150
#	100756
#	112646
#	125737
#	144892
#
# Disc length: 2325 seconds
#
# Revision: 0
# Processed by: cddbd v1.5.1PL2 Copyright (c) Steve Scherf et al.
# Submitted via: CDex 1.51
#
DISCID=7f09130a
DTITLE=Cream - Strange Brew - The Best Of Cream
DYEAR=1983
DGENRE=Blues
TTITLE0=Badge
TTITLE1=Sunshine Of Your Love
TTITLE2=Crossroads (Live)
TTITLE3=White Room
TTITLE4=Born Under A Bad Sign
TTITLE5=Strange Brew
TTITLE6=Anyone For Tennis
TTITLE7=I Feel Free
TTITLE8=Politician
TTITLE9=Spoonful
EXTD=YEAR: 1983
EXTT0=
EXTT1=
EXTT2=
EXTT3=
EXTT4=
EXTT5=
EXTT6=
EXTT7=
EXTT8=
EXTT9=
PLAYORDER=
